<svg viewBox="0 0 100 100" xmlns="http://www.w3.org/2000/svg">
  <path fill="#2A3D53" d="M74.16 88.93c-13.934 0-24.679-14.28-25.13-14.888a3.601 3.601 0 010-4.289c.45-.608 11.196-14.887 25.13-14.887 13.935 0 24.681 14.279 25.132 14.887a3.602 3.602 0 010 4.29C98.84 74.65 88.095 88.93 74.16 88.93z"/>
  <path fill="#34495E" d="M25.84 88.93C11.905 88.93 1.159 74.65.707 74.043a3.602 3.602 0 010-4.29c.45-.608 11.197-14.887 25.132-14.887 13.934 0 24.68 14.28 25.13 14.887a3.601 3.601 0 010 4.29c-.451.607-11.196 14.887-25.13 14.887z"/>
  <path fill="#80D3AE" d="M63.346 71.46c-3.395 0-5.757-.345-5.857-.36a3.602 3.602 0 01-3.033-3.032c-.11-.749-2.61-18.444 7.243-28.297 3.468-3.468 10.178-7.604 22.44-7.604 3.396 0 5.758.346 5.857.36a3.601 3.601 0 013.033 3.034c.111.748 2.61 18.444-7.244 28.297-3.467 3.468-10.176 7.603-22.439 7.603z"/>
  <path fill="#D0F5E5" d="M36.76 71.52c-12.263 0-18.972-4.135-22.44-7.603C4.467 54.064 6.965 36.37 7.077 35.62a3.601 3.601 0 013.033-3.033c.099-.015 2.46-.36 5.856-.36 12.263 0 18.972 4.135 22.44 7.604 9.854 9.853 7.355 27.548 7.244 28.296a3.601 3.601 0 01-3.033 3.034c-.1.014-2.462.36-5.857.36z"/>
  <path fill="#41B883" d="M50.034 75.41a3.596 3.596 0 01-2.145-.708c-.765-.567-18.732-14.086-18.732-31.497 0-17.41 17.968-30.93 18.732-31.497a3.602 3.602 0 014.29 0c.765.567 18.733 14.087 18.733 31.497S52.944 74.135 52.18 74.703a3.6 3.6 0 01-2.145.707z"/>
  <path fill="#39A575" d="M52.179 11.708A3.595 3.595 0 0050 11.001V75.41l.034.002c.754 0 1.508-.236 2.145-.709.765-.567 18.733-14.086 18.733-31.497 0-17.41-17.968-30.93-18.733-31.497z"/>
</svg>
